<svg width="33" height="33" viewBox="0 0 33 33" fill="none" xmlns="http://www.w3.org/2000/svg">
<g opacity="0.25">
<path d="M22.8359 27.5596C22.8359 27.8248 22.7306 28.0792 22.543 28.2667C22.3555 28.4543 22.1012 28.5596 21.8359 28.5596H3.83594C3.57072 28.5596 3.31637 28.4543 3.12883 28.2667C2.94129 28.0792 2.83594 27.8248 2.83594 27.5596C2.83594 27.2944 2.94129 27.0401 3.12883 26.8525C3.31637 26.665 3.57072 26.5596 3.83594 26.5596H21.8359C22.1012 26.5596 22.3555 26.665 22.543 26.8525C22.7306 27.0401 22.8359 27.2944 22.8359 27.5596ZM31.6247 11.4046L29.2947 8.41838L29.2797 8.39963C28.5262 7.47154 27.4639 6.84562 26.2869 6.6363C25.1099 6.42698 23.897 6.64824 22.8697 7.25963L16.4234 11.1071L9.68094 8.62713C9.4556 8.5431 9.20753 8.5431 8.98219 8.62713L8.08594 8.96838L8.04594 8.98463C7.73932 9.11624 7.47051 9.32248 7.26398 9.58455C7.05745 9.84662 6.91978 10.1562 6.86349 10.4851C6.80721 10.814 6.8341 11.1517 6.94173 11.4676C7.04935 11.7834 7.23429 12.0673 7.47969 12.2934L10.2109 14.9421L7.68969 16.4671L4.15719 15.2746C3.90718 15.1904 3.63401 15.2084 3.39719 15.3246L3.02219 15.5084C2.72217 15.6424 2.4598 15.8484 2.2583 16.108C2.05679 16.3675 1.92235 16.6728 1.86687 16.9967C1.81138 17.3206 1.83656 17.6531 1.94017 17.965C2.04379 18.2768 2.22265 18.5583 2.46094 18.7846L6.96094 23.1934L6.97594 23.2084C7.89771 24.0796 9.11758 24.5657 10.3859 24.5671C11.2763 24.5657 12.1504 24.3275 12.9184 23.8771L31.3447 12.8771C31.4663 12.8045 31.571 12.7068 31.652 12.5906C31.733 12.4744 31.7884 12.3423 31.8146 12.2031C31.8407 12.0639 31.8369 11.9207 31.8035 11.7831C31.7702 11.6454 31.7079 11.5164 31.6209 11.4046H31.6247Z" fill="white"/>
</g>
</svg>
