<svg width="33" height="33" viewBox="0 0 33 33" fill="none" xmlns="http://www.w3.org/2000/svg">
<g opacity="0.25">
<path d="M30.2591 10.0553L27.3553 8.12026C26.8736 6.60159 25.9208 5.27578 24.635 4.33498C23.3493 3.39418 21.7973 2.88728 20.204 2.88776H20.1678C16.0528 2.90776 12.704 6.32151 12.704 10.499V12.9665L2.1578 25.6228L2.1453 25.6378C1.90993 25.9317 1.76234 26.2862 1.71952 26.6603C1.67669 27.0345 1.74037 27.4131 1.90323 27.7527C2.06608 28.0922 2.3215 28.3789 2.64008 28.5797C2.95866 28.7805 3.32746 28.8873 3.70405 28.8878H14.704C18.1507 28.8841 21.4552 27.5133 23.8924 25.0761C26.3296 22.6389 27.7004 19.3345 27.7041 15.8878V13.4228L30.2591 11.7203C30.3962 11.629 30.5087 11.5052 30.5865 11.36C30.6643 11.2147 30.705 11.0525 30.705 10.8878C30.705 10.723 30.6643 10.5608 30.5865 10.4155C30.5087 10.2703 30.3962 10.1465 30.2591 10.0553ZM16.4728 17.5278L8.9728 26.5278C8.8897 26.6316 8.78673 26.7178 8.66992 26.7813C8.55311 26.8448 8.4248 26.8844 8.2925 26.8978C8.1602 26.9111 8.02656 26.8979 7.89942 26.859C7.77227 26.8201 7.65416 26.7562 7.552 26.6711C7.44985 26.586 7.36569 26.4813 7.30446 26.3633C7.24323 26.2453 7.20615 26.1162 7.1954 25.9837C7.18465 25.8511 7.20044 25.7178 7.24185 25.5914C7.28325 25.4651 7.34944 25.3482 7.43655 25.2478L14.9365 16.2478C15.0196 16.1439 15.1226 16.0578 15.2394 15.9942C15.3562 15.9307 15.4845 15.8911 15.6168 15.8778C15.7491 15.8644 15.8828 15.8776 16.0099 15.9165C16.1371 15.9554 16.2552 16.0193 16.3573 16.1044C16.4595 16.1895 16.5437 16.2942 16.6049 16.4122C16.6661 16.5303 16.7032 16.6593 16.7139 16.7918C16.7247 16.9244 16.7089 17.0577 16.6675 17.1841C16.6261 17.3105 16.5599 17.4273 16.4728 17.5278ZM21.204 10.8878C20.9074 10.8878 20.6174 10.7998 20.3707 10.635C20.124 10.4701 19.9318 10.2359 19.8182 9.96178C19.7047 9.68769 19.675 9.38609 19.7329 9.09512C19.7907 8.80415 19.9336 8.53688 20.1434 8.3271C20.3532 8.11732 20.6204 7.97446 20.9114 7.91658C21.2024 7.8587 21.504 7.88841 21.7781 8.00194C22.0522 8.11547 22.2864 8.30773 22.4513 8.5544C22.6161 8.80107 22.704 9.09108 22.704 9.38776C22.704 9.78558 22.546 10.1671 22.2647 10.4484C21.9834 10.7297 21.6019 10.8878 21.204 10.8878Z" fill="white"/>
</g>
</svg>
