<svg width="33" height="33" viewBox="0 0 33 33" fill="none" xmlns="http://www.w3.org/2000/svg">
<g opacity="0.25">
<path d="M19.4629 14.9238C19.4629 15.189 19.3575 15.4434 19.17 15.6309C18.9825 15.8185 18.7281 15.9238 18.4629 15.9238H14.4629C14.1977 15.9238 13.9433 15.8185 13.7558 15.6309C13.5682 15.4434 13.4629 15.189 13.4629 14.9238C13.4629 14.6586 13.5682 14.4043 13.7558 14.2167C13.9433 14.0292 14.1977 13.9238 14.4629 13.9238H18.4629C18.7281 13.9238 18.9825 14.0292 19.17 14.2167C19.3575 14.4043 19.4629 14.6586 19.4629 14.9238ZM29.4629 9.92383V25.9238C29.4629 26.4543 29.2522 26.963 28.8771 27.338C28.502 27.7131 27.9933 27.9238 27.4629 27.9238H5.46289C4.93246 27.9238 4.42375 27.7131 4.04868 27.338C3.6736 26.963 3.46289 26.4543 3.46289 25.9238V9.92383C3.46289 9.39339 3.6736 8.88469 4.04868 8.50961C4.42375 8.13454 4.93246 7.92383 5.46289 7.92383H10.4629V6.92383C10.4629 6.12818 10.779 5.36512 11.3416 4.80251C11.9042 4.2399 12.6672 3.92383 13.4629 3.92383H19.4629C20.2585 3.92383 21.0216 4.2399 21.5842 4.80251C22.1468 5.36512 22.4629 6.12818 22.4629 6.92383V7.92383H27.4629C27.9933 7.92383 28.502 8.13454 28.8771 8.50961C29.2522 8.88469 29.4629 9.39339 29.4629 9.92383ZM12.4629 7.92383H20.4629V6.92383C20.4629 6.65861 20.3575 6.40426 20.17 6.21672C19.9825 6.02919 19.7281 5.92383 19.4629 5.92383H13.4629C13.1977 5.92383 12.9433 6.02919 12.7558 6.21672C12.5682 6.40426 12.4629 6.65861 12.4629 6.92383V7.92383ZM27.4629 15.1251V9.92383H5.46289V15.1251C8.83817 16.9623 12.62 17.9245 16.4629 17.9238C20.3058 17.9245 24.0876 16.9623 27.4629 15.1251Z" fill="white"/>
</g>
</svg>
