<svg width="33" height="33" viewBox="0 0 33 33" fill="none" xmlns="http://www.w3.org/2000/svg">
<g opacity="0.25">
<path d="M16.3389 3.18759C13.7677 3.18759 11.2543 3.95003 9.11646 5.37849C6.97862 6.80694 5.31238 8.83727 4.32844 11.2127C3.3445 13.5881 3.08706 16.202 3.58866 18.7238C4.09027 21.2455 5.3284 23.5619 7.14648 25.38C8.96457 27.1981 11.2809 28.4362 13.8027 28.9378C16.3245 29.4394 18.9383 29.182 21.3138 28.198C23.6892 27.2141 25.7195 25.5478 27.148 23.41C28.5764 21.2722 29.3389 18.7587 29.3389 16.1876C29.3352 12.7409 27.9644 9.43641 25.5272 6.99922C23.0901 4.56204 19.7856 3.19123 16.3389 3.18759ZM17.8389 22.1876H17.3389V23.1876C17.3389 23.4528 17.2335 23.7072 17.046 23.8947C16.8584 24.0822 16.6041 24.1876 16.3389 24.1876C16.0737 24.1876 15.8193 24.0822 15.6318 23.8947C15.4442 23.7072 15.3389 23.4528 15.3389 23.1876V22.1876H13.3389C13.0737 22.1876 12.8193 22.0822 12.6318 21.8947C12.4442 21.7072 12.3389 21.4528 12.3389 21.1876C12.3389 20.9224 12.4442 20.668 12.6318 20.4805C12.8193 20.2929 13.0737 20.1876 13.3389 20.1876H17.8389C18.2367 20.1876 18.6182 20.0296 18.8995 19.7483C19.1808 19.4669 19.3389 19.0854 19.3389 18.6876C19.3389 18.2898 19.1808 17.9082 18.8995 17.6269C18.6182 17.3456 18.2367 17.1876 17.8389 17.1876H14.8389C13.9106 17.1876 13.0204 16.8188 12.364 16.1625C11.7076 15.5061 11.3389 14.6158 11.3389 13.6876C11.3389 12.7593 11.7076 11.8691 12.364 11.2127C13.0204 10.5563 13.9106 10.1876 14.8389 10.1876H15.3389V9.18759C15.3389 8.92238 15.4442 8.66802 15.6318 8.48048C15.8193 8.29295 16.0737 8.18759 16.3389 8.18759C16.6041 8.18759 16.8584 8.29295 17.046 8.48048C17.2335 8.66802 17.3389 8.92238 17.3389 9.18759V10.1876H19.3389C19.6041 10.1876 19.8584 10.2929 20.046 10.4805C20.2335 10.668 20.3389 10.9224 20.3389 11.1876C20.3389 11.4528 20.2335 11.7072 20.046 11.8947C19.8584 12.0822 19.6041 12.1876 19.3389 12.1876H14.8389C14.441 12.1876 14.0595 12.3456 13.7782 12.6269C13.4969 12.9082 13.3389 13.2898 13.3389 13.6876C13.3389 14.0854 13.4969 14.4669 13.7782 14.7483C14.0595 15.0296 14.441 15.1876 14.8389 15.1876H17.8389C18.7671 15.1876 19.6574 15.5563 20.3137 16.2127C20.9701 16.8691 21.3389 17.7593 21.3389 18.6876C21.3389 19.6158 20.9701 20.5061 20.3137 21.1625C19.6574 21.8188 18.7671 22.1876 17.8389 22.1876Z" fill="white"/>
</g>
</svg>
