<svg width="33" height="33" viewBox="0 0 33 33" fill="none" xmlns="http://www.w3.org/2000/svg">
<g opacity="0.25">
<path d="M26.8218 11.236L19.8218 4.23595C19.7288 4.14312 19.6185 4.0695 19.4971 4.01931C19.3757 3.96913 19.2456 3.94335 19.1143 3.94345H7.11426C6.58382 3.94345 6.07512 4.15416 5.70004 4.52924C5.32497 4.90431 5.11426 5.41302 5.11426 5.94345V27.9435C5.11426 28.4739 5.32497 28.9826 5.70004 29.3577C6.07512 29.7327 6.58382 29.9435 7.11426 29.9435H25.1143C25.6447 29.9435 26.1534 29.7327 26.5285 29.3577C26.9035 28.9826 27.1143 28.4739 27.1143 27.9435V11.9435C27.1144 11.8121 27.0886 11.682 27.0384 11.5606C26.9882 11.4392 26.9146 11.3289 26.8218 11.236ZM20.1143 22.9435H12.1143C11.849 22.9435 11.5947 22.8381 11.4072 22.6506C11.2196 22.463 11.1143 22.2087 11.1143 21.9435C11.1143 21.6782 11.2196 21.4239 11.4072 21.2363C11.5947 21.0488 11.849 20.9435 12.1143 20.9435H20.1143C20.3795 20.9435 20.6338 21.0488 20.8214 21.2363C21.0089 21.4239 21.1143 21.6782 21.1143 21.9435C21.1143 22.2087 21.0089 22.463 20.8214 22.6506C20.6338 22.8381 20.3795 22.9435 20.1143 22.9435ZM20.1143 18.9435H12.1143C11.849 18.9435 11.5947 18.8381 11.4072 18.6506C11.2196 18.463 11.1143 18.2087 11.1143 17.9435C11.1143 17.6782 11.2196 17.4239 11.4072 17.2363C11.5947 17.0488 11.849 16.9435 12.1143 16.9435H20.1143C20.3795 16.9435 20.6338 17.0488 20.8214 17.2363C21.0089 17.4239 21.1143 17.6782 21.1143 17.9435C21.1143 18.2087 21.0089 18.463 20.8214 18.6506C20.6338 18.8381 20.3795 18.9435 20.1143 18.9435ZM19.1143 11.9435V6.44345L24.6143 11.9435H19.1143Z" fill="white"/>
</g>
</svg>
