<svg width="77" height="24" viewBox="0 0 77 24" fill="none" xmlns="http://www.w3.org/2000/svg">
<path d="M21.6815 6.98766L19.5513 5.56815C19.198 4.45407 18.499 3.48146 17.5558 2.79129C16.6125 2.10112 15.474 1.72927 14.3052 1.72961H14.2786C11.2599 1.74429 8.80326 4.2486 8.80326 7.31319V9.12334L1.06658 18.4079L1.05741 18.4189C0.884741 18.6346 0.776472 18.8946 0.745057 19.1691C0.713641 19.4435 0.760356 19.7213 0.879825 19.9704C0.999295 20.2195 1.18666 20.4298 1.42037 20.5771C1.65408 20.7244 1.92463 20.8027 2.2009 20.8031H10.2704C12.7989 20.8004 15.2231 19.7948 17.011 18.0069C18.7989 16.219 19.8045 13.7948 19.8072 11.2664V9.45804L21.6815 8.20909C21.7821 8.14213 21.8647 8.05134 21.9217 7.94479C21.9788 7.83825 22.0087 7.71925 22.0087 7.59838C22.0087 7.47751 21.9788 7.35851 21.9217 7.25196C21.8647 7.14542 21.7821 7.05462 21.6815 6.98766ZM11.568 12.4694L6.06603 19.0718C6.00507 19.148 5.92953 19.2112 5.84384 19.2578C5.75814 19.3044 5.66402 19.3334 5.56696 19.3432C5.46991 19.353 5.37188 19.3434 5.2786 19.3148C5.18533 19.2863 5.09868 19.2394 5.02374 19.177C4.9488 19.1145 4.88706 19.0377 4.84214 18.9512C4.79722 18.8646 4.77003 18.7699 4.76214 18.6727C4.75425 18.5754 4.76584 18.4776 4.79621 18.3849C4.82659 18.2922 4.87514 18.2065 4.93904 18.1328L10.441 11.5304C10.502 11.4543 10.5775 11.3911 10.6632 11.3445C10.7489 11.2979 10.843 11.2688 10.9401 11.259C11.0371 11.2492 11.1352 11.2589 11.2284 11.2874C11.3217 11.316 11.4084 11.3629 11.4833 11.4253C11.5582 11.4877 11.62 11.5645 11.6649 11.6511C11.7098 11.7377 11.737 11.8324 11.7449 11.9296C11.7528 12.0268 11.7412 12.1246 11.7108 12.2173C11.6804 12.31 11.6319 12.3957 11.568 12.4694ZM15.0388 7.59838C14.8212 7.59838 14.6084 7.53384 14.4275 7.41293C14.2465 7.29201 14.1055 7.12016 14.0222 6.91909C13.9389 6.71802 13.9171 6.49676 13.9596 6.28331C14.002 6.06985 14.1068 5.87378 14.2607 5.71989C14.4146 5.566 14.6107 5.46119 14.8241 5.41873C15.0376 5.37628 15.2588 5.39807 15.4599 5.48135C15.661 5.56464 15.8328 5.70568 15.9538 5.88664C16.0747 6.0676 16.1392 6.28035 16.1392 6.49798C16.1392 6.78983 16.0233 7.06972 15.8169 7.27608C15.6105 7.48244 15.3307 7.59838 15.0388 7.59838Z" fill="white"/>
<path d="M71.4888 18.9141C70.5229 18.9141 69.7251 18.6727 69.0954 18.1897C68.4718 17.7068 68.1601 16.9823 68.1601 16.0164C68.1601 15.289 68.3343 14.7204 68.6828 14.3108C69.0312 13.8951 69.4928 13.5925 70.0674 13.403C70.6421 13.2135 71.2656 13.0882 71.9381 13.027C72.8245 12.9353 73.445 12.8436 73.7996 12.7519C74.1542 12.6602 74.3314 12.4585 74.3314 12.1467V12.0825C74.3314 11.728 74.1908 11.4376 73.9096 11.2114C73.6284 10.9852 73.2402 10.8721 72.745 10.8721C72.2437 10.8721 71.8372 10.9883 71.5254 11.2206C71.2137 11.4529 71.0425 11.7555 71.0119 12.1284H68.4718C68.533 11.1319 68.9426 10.3403 69.7006 9.75338C70.4587 9.16039 71.501 8.86389 72.8276 8.86389C74.1542 8.86389 75.1812 9.16039 75.9087 9.75338C76.6361 10.3403 76.9999 11.1503 76.9999 12.1834V18.7491H74.3589V17.3828H74.3223C74.0655 17.8535 73.714 18.2264 73.2677 18.5015C72.8215 18.7766 72.2285 18.9141 71.4888 18.9141ZM72.2407 17.0343C72.8887 17.0343 73.4022 16.8631 73.7812 16.5208C74.1603 16.1723 74.3498 15.7352 74.3498 15.2095V14.2375C74.1969 14.3231 73.9432 14.4025 73.5887 14.4759C73.2341 14.5431 72.8398 14.6104 72.4057 14.6776C71.9411 14.751 71.5468 14.8855 71.2228 15.0811C70.9049 15.2706 70.746 15.5579 70.746 15.9431C70.746 16.2854 70.8805 16.5544 71.1495 16.75C71.4246 16.9396 71.7883 17.0343 72.2407 17.0343Z" fill="white"/>
<path d="M61.2002 18.749L57.6147 9.06555H60.4482L62.0438 13.8523C62.1661 14.2313 62.2853 14.6134 62.4014 14.9985C62.5176 15.3775 62.6307 15.7596 62.7407 16.1447C62.8508 15.7596 62.9608 15.3775 63.0708 14.9985C63.187 14.6134 63.3031 14.2313 63.4193 13.8523L64.9965 9.06555H67.8025L64.2079 18.749H61.2002Z" fill="white"/>
<path d="M51.4619 18.9141C50.496 18.9141 49.6982 18.6727 49.0686 18.1897C48.445 17.7068 48.1332 16.9823 48.1332 16.0164C48.1332 15.289 48.3075 14.7204 48.6559 14.3108C49.0044 13.8951 49.4659 13.5925 50.0406 13.403C50.6152 13.2135 51.2388 13.0882 51.9112 13.027C52.7977 12.9353 53.4182 12.8436 53.7727 12.7519C54.1273 12.6602 54.3046 12.4585 54.3046 12.1467V12.0825C54.3046 11.728 54.164 11.4376 53.8828 11.2114C53.6016 10.9852 53.2134 10.8721 52.7182 10.8721C52.2169 10.8721 51.8104 10.9883 51.4986 11.2206C51.1868 11.4529 51.0156 11.7555 50.9851 12.1284H48.445C48.5061 11.1319 48.9157 10.3403 49.6738 9.75338C50.4318 9.16039 51.4741 8.86389 52.8007 8.86389C54.1273 8.86389 55.1543 9.16039 55.8818 9.75338C56.6093 10.3403 56.973 11.1503 56.973 12.1834V18.7491H54.3321V17.3828H54.2954C54.0387 17.8535 53.6872 18.2264 53.2409 18.5015C52.7946 18.7766 52.2016 18.9141 51.4619 18.9141ZM52.2138 17.0343C52.8619 17.0343 53.3754 16.8631 53.7544 16.5208C54.1334 16.1723 54.3229 15.7352 54.3229 15.2095V14.2375C54.1701 14.3231 53.9164 14.4025 53.5618 14.4759C53.2073 14.5431 52.813 14.6104 52.3789 14.6776C51.9143 14.751 51.52 14.8855 51.196 15.0811C50.8781 15.2706 50.7191 15.5579 50.7191 15.9431C50.7191 16.2854 50.8536 16.5544 51.1226 16.75C51.3977 16.9396 51.7615 17.0343 52.2138 17.0343Z" fill="white"/>
<path d="M41.6405 18.749V9.06553H44.2447V10.7161H44.2723C44.4495 10.1354 44.7277 9.70437 45.1067 9.42316C45.4857 9.14195 45.9962 9.00134 46.6381 9.00134C46.797 9.00134 46.9407 9.0044 47.0691 9.01051C47.2036 9.01663 47.3258 9.01968 47.4359 9.01968V11.3213C47.3381 11.3152 47.1761 11.3061 46.9499 11.2938C46.7237 11.2816 46.4975 11.2755 46.2713 11.2755C45.715 11.2755 45.2534 11.465 44.8866 11.844C44.526 12.223 44.3456 12.7763 44.3456 13.5038V18.749H41.6405Z" fill="white"/>
<path d="M29.9307 18.749V5.08582H35.3226C36.3435 5.08582 37.2269 5.26921 37.9727 5.63601C38.7246 5.9967 39.3023 6.51327 39.7058 7.18573C40.1154 7.85819 40.3202 8.65292 40.3202 9.56992C40.3202 10.4869 40.1124 11.2816 39.6967 11.9541C39.2871 12.6205 38.7063 13.137 37.9544 13.5038C37.2024 13.8706 36.3129 14.054 35.2859 14.054H32.755V18.749H29.9307ZM32.755 11.6882H35.1392C35.885 11.6882 36.4749 11.4987 36.909 11.1196C37.343 10.7345 37.5601 10.2179 37.5601 9.56992C37.5601 8.91579 37.343 8.39922 36.909 8.0202C36.4749 7.64117 35.885 7.45166 35.1392 7.45166H32.755V11.6882Z" fill="white"/>
</svg>
