<svg width="33" height="33" viewBox="0 0 33 33" fill="none" xmlns="http://www.w3.org/2000/svg">
<g opacity="0.25">
<path d="M30.7448 7.8203C30.6009 7.73045 30.4364 7.67872 30.2669 7.66997C30.0975 7.66123 29.9285 7.69575 29.7761 7.7703C24.4098 10.3953 20.5773 9.1653 16.5261 7.8678C12.2648 6.51155 7.86484 5.1053 1.77609 8.0778C1.60794 8.15991 1.46619 8.28754 1.36698 8.4462C1.26776 8.60486 1.21505 8.78818 1.21484 8.9753V23.9666C1.21482 24.1362 1.25797 24.3031 1.34022 24.4515C1.42248 24.5999 1.54114 24.7249 1.68504 24.8148C1.82894 24.9047 1.99335 24.9565 2.16279 24.9653C2.33223 24.9742 2.50113 24.9397 2.65359 24.8653C8.01984 22.2403 11.8523 23.4703 15.9098 24.7678C18.3148 25.5366 20.7648 26.3203 23.5348 26.3203C25.6711 26.3203 28.0011 25.8553 30.6486 24.5628C30.8167 24.4807 30.9585 24.3531 31.0577 24.1944C31.1569 24.0357 31.2096 23.8524 31.2098 23.6653V8.67405C31.2114 8.50395 31.1694 8.33626 31.0881 8.18687C31.0067 8.03748 30.8886 7.91131 30.7448 7.8203ZM6.21484 19.3203C6.21484 19.5855 6.10949 19.8399 5.92195 20.0274C5.73441 20.2149 5.48006 20.3203 5.21484 20.3203C4.94963 20.3203 4.69527 20.2149 4.50774 20.0274C4.3202 19.8399 4.21484 19.5855 4.21484 19.3203V11.3203C4.21484 11.0551 4.3202 10.8007 4.50774 10.6132C4.69527 10.4257 4.94963 10.3203 5.21484 10.3203C5.48006 10.3203 5.73441 10.4257 5.92195 10.6132C6.10949 10.8007 6.21484 11.0551 6.21484 11.3203V19.3203ZM16.2148 20.3203C15.4237 20.3203 14.6504 20.0857 13.9926 19.6462C13.3348 19.2067 12.8221 18.5819 12.5193 17.851C12.2166 17.1201 12.1374 16.3159 12.2917 15.5399C12.446 14.764 12.827 14.0513 13.3864 13.4919C13.9458 12.9325 14.6586 12.5515 15.4345 12.3972C16.2104 12.2428 17.0147 12.322 17.7456 12.6248C18.4765 12.9275 19.1012 13.4402 19.5407 14.098C19.9802 14.7558 20.2148 15.5292 20.2148 16.3203C20.2148 17.3812 19.7934 18.3986 19.0433 19.1487C18.2931 19.8989 17.2757 20.3203 16.2148 20.3203ZM28.2148 21.3203C28.2148 21.5855 28.1095 21.8399 27.922 22.0274C27.7344 22.2149 27.4801 22.3203 27.2148 22.3203C26.9496 22.3203 26.6953 22.2149 26.5077 22.0274C26.3202 21.8399 26.2148 21.5855 26.2148 21.3203V13.3203C26.2148 13.0551 26.3202 12.8007 26.5077 12.6132C26.6953 12.4257 26.9496 12.3203 27.2148 12.3203C27.4801 12.3203 27.7344 12.4257 27.922 12.6132C28.1095 12.8007 28.2148 13.0551 28.2148 13.3203V21.3203Z" fill="white"/>
</g>
</svg>
